<!-- icon666.com - MILLIONS OF FREE VECTOR ICONS --><svg version="1.1" id="Capa_1" xmlns="http://www.w3.org/2000/svg" xmlns:xlink="http://www.w3.org/1999/xlink" x="0px" y="0px" viewBox="0 0 512 512" style="enable-background:new 0 0 512 512;" xml:space="preserve"><g><g><path d="M24.21,105.444v249.65c0,8.284,6.716,15,15,15H241v54.604h-35.021c-19.821,0-35.947,16.126-35.947,35.947v35.712 c0,8.284,6.716,15,15,15h141.937c8.284,0,15-6.716,15-15v-35.712c0-19.821-16.126-35.947-35.947-35.947H271v-54.604h201.79 c8.284,0,15-6.716,15-15v-249.65H24.21z M296.102,291.962H101.323c-8.284,0-15-6.716-15-15s6.716-15,15-15h194.779 c8.284,0,15,6.716,15,15S304.386,291.962,296.102,291.962z M296.102,232.835H101.323c-8.284,0-15-6.716-15-15s6.716-15,15-15 h194.779c8.284,0,15,6.716,15,15S304.386,232.835,296.102,232.835z M296.102,173.706H101.323c-8.284,0-15-6.716-15-15 s6.716-15,15-15h194.779c8.284,0,15,6.716,15,15S304.386,173.706,296.102,173.706z M410.677,291.962h-29.281 c-8.284,0-15-6.716-15-15s6.716-15,15-15h29.281c8.284,0,15,6.716,15,15S418.961,291.962,410.677,291.962z M410.677,232.835 h-29.281c-8.284,0-15-6.716-15-15s6.716-15,15-15h29.281c8.284,0,15,6.716,15,15S418.961,232.835,410.677,232.835z M410.677,173.706h-29.281c-8.284,0-15-6.716-15-15s6.716-15,15-15h29.281c8.284,0,15,6.716,15,15 S418.961,173.706,410.677,173.706z"></path></g></g><g><g><path d="M497,0.644H15c-8.284,0-15,6.716-15,15v59.801h512v-0.001v-59.8C512,7.36,505.284,0.644,497,0.644z"></path></g></g></svg>