<!-- icon666.com - MILLIONS OF FREE VECTOR ICONS --><svg viewBox="-50 0 511 512" xmlns="http://www.w3.org/2000/svg"><path d="m365.964844 0h-320.464844c-24.8125 0-45 20.1875-45 45v422c0 24.8125 20.1875 45 45 45h320.46875c24.8125 0 45-20.1875 45-45v-422c-.003906-24.8125-20.1875-45-45.003906-45zm-29.773438 323.597656h-152.917968c-8.285157 0-15-6.714844-15-15s6.714843-15 15-15h152.917968c8.285156 0 15 6.714844 15 15s-6.714844 15-15 15zm15 86.476563c0 8.285156-6.714844 15-15 15h-152.917968c-8.285157 0-15-6.714844-15-15 0-8.285157 6.714843-15 15-15h152.917968c8.285156 0 15 6.714843 15 15zm-15-187.957031h-152.917968c-8.285157 0-15-6.714844-15-15 0-8.28125 6.714843-15 15-15h152.917968c8.285156 0 15 6.71875 15 15 0 8.285156-6.714844 15-15 15zm0-105.558594h-152.917968c-8.285157 0-15-6.714844-15-15s6.714843-15 15-15h152.917968c8.285156 0 15 6.714844 15 15s-6.714844 15-15 15zm-199.75 305.691406c5.855469 5.855469 5.855469 15.355469 0 21.210938-2.929687 2.929687-6.769531 4.394531-10.605468 4.394531-3.839844 0-7.679688-1.464844-10.609376-4.394531l-12.171874-12.171876-12.171876 12.171876c-2.929687 2.929687-6.769531 4.394531-10.605468 4.394531-3.839844 0-7.679688-1.464844-10.605469-4.394531-5.859375-5.855469-5.859375-15.355469 0-21.214844l12.171875-12.171875-12.171875-12.171875c-5.859375-5.855469-5.859375-15.355469 0-21.214844 5.855469-5.855469 15.351563-5.859375 21.210937 0l12.171876 12.175781 12.175781-12.171875c5.855469-5.859375 15.355469-5.859375 21.210937 0 5.859375 5.855469 5.859375 15.355469 0 21.210938l-12.171875 12.171875zm-31.34375-84.347656c-2.929687 2.929687-6.769531 4.394531-10.609375 4.394531-3.835937 0-7.675781-1.464844-10.605469-4.394531l-20.269531-20.273438c-5.859375-5.855468-5.859375-15.355468 0-21.210937 5.855469-5.859375 15.355469-5.859375 21.210938 0l9.667969 9.664062 26.792968-26.792969c5.859375-5.855468 15.355469-5.855468 21.214844 0 5.855469 5.859376 5.855469 15.355469 0 21.214844zm-35.429687-142.957032c-5.855469-5.859374-5.855469-15.355468 0-21.214843 5.859375-5.859375 15.355469-5.859375 21.214843 0l12.171876 12.171875 12.171874-12.171875c5.859376-5.855469 15.355469-5.855469 21.214844 0 5.859375 5.859375 5.859375 15.355469 0 21.214843l-12.171875 12.171876 12.171875 12.171874c5.859375 5.859376 5.859375 15.355469 0 21.214844-2.929687 2.929688-6.769531 4.394532-10.605468 4.394532-3.839844 0-7.679688-1.464844-10.605469-4.394532l-12.175781-12.171875-12.171876 12.171875c-2.929687 2.929688-6.769531 4.394532-10.605468 4.394532-3.839844 0-7.679688-1.464844-10.605469-4.394532-5.859375-5.859375-5.859375-15.355468 0-21.214844l12.171875-12.171874zm0-105.558593c-5.855469-5.859375-5.855469-15.355469 0-21.214844 5.859375-5.855469 15.355469-5.855469 21.214843 0l12.171876 12.175781 12.171874-12.175781c5.859376-5.855469 15.355469-5.859375 21.214844 0s5.859375 15.355469 0 21.214844l-12.171875 12.171875 12.171875 12.171875c5.859375 5.859375 5.859375 15.355469 0 21.214843-2.929687 2.929688-6.769531 4.394532-10.605468 4.394532-3.839844 0-7.679688-1.464844-10.605469-4.394532l-12.175781-12.171874-12.171876 12.171874c-2.929687 2.925782-6.769531 4.394532-10.605468 4.394532-3.839844 0-7.675782-1.464844-10.605469-4.394532-5.859375-5.859374-5.859375-15.355468 0-21.214843l12.171875-12.171875zm0 0"></path></svg>